<svg width="19" height="19" viewBox="0 0 19 19" fill="none" xmlns="http://www.w3.org/2000/svg">
<circle cx="9.5" cy="9.5" r="5.5" fill="#fff"/>
<path d="M18.2082 9.5L16.2765 7.29125L16.5457 4.37L13.6878 3.72083L12.1915 1.1875L9.49984 2.34333L6.80817 1.1875L5.31192 3.71292L2.454 4.35417L2.72317 7.28333L0.791504 9.5L2.72317 11.7087L2.454 14.6379L5.31192 15.2871L6.80817 17.8125L9.49984 16.6488L12.1915 17.8046L13.6878 15.2792L16.5457 14.63L16.2765 11.7087L18.2082 9.5ZM7.42567 12.6746L5.5415 10.7746C5.46811 10.7013 5.40989 10.6143 5.37016 10.5186C5.33043 10.4228 5.30999 10.3201 5.30999 10.2165C5.30999 10.1128 5.33043 10.0101 5.37016 9.91434C5.40989 9.81857 5.46811 9.73157 5.5415 9.65833L5.59692 9.60292C5.90567 9.29417 6.41234 9.29417 6.72109 9.60292L7.99567 10.8854L12.0728 6.80042C12.3815 6.49167 12.8882 6.49167 13.1969 6.80042L13.2523 6.85583C13.5611 7.16458 13.5611 7.66333 13.2523 7.97208L8.56567 12.6746C8.24109 12.9833 7.74234 12.9833 7.42567 12.6746Z" fill="#6494eb"/>
</svg>
